/vscmnt/brussel_pixiu_data/_data_brussel/112/vsc11236/PredSimResults/SUBJ11mtu3D/worker5.mot
version=1
nRows=11
nColumns=50
inDegrees=yes
endheader
                time	         pelvis_tilt	         pelvis_list	     pelvis_rotation	           pelvis_tx	           pelvis_ty	           pelvis_tz	       hip_flexion_r	     hip_adduction_r	      hip_rotation_r	        knee_angle_r	       ankle_angle_r	         mtp_angle_r	       hip_flexion_l	     hip_adduction_l	      hip_rotation_l	        knee_angle_l	       ankle_angle_l	         mtp_angle_l	    lumbar_extension	      lumbar_bending	     lumbar_rotation	 ercspn_r/activation	 intobl_r/activation	 extobl_r/activation	    abd_r/activation	    add_r/activation	hamstrings_r/activation	bifemsh_r/activation	glut_max_r/activation	iliopsoas_r/activation	rect_fem_r/activation	  vasti_r/activation	gastroc_r/activation	 soleus_r/activation	tib_ant_r/activation	 ercspn_l/activation	 intobl_l/activation	 extobl_l/activation	    abd_l/activation	    add_l/activation	hamstrings_l/activation	bifemsh_l/activation	glut_max_l/activation	iliopsoas_l/activation	rect_fem_l/activation	  vasti_l/activation	gastroc_l/activation	 soleus_l/activation	tib_ant_l/activation	
          0.65312557	         -3.48864832	          0.66331419	         -5.03184417	          0.71843813	          0.94298664	          0.00633801	        -13.27960022	         -2.40179151	         -2.50839380	        -11.62235897	         11.98922879	         28.74587607	         31.31792699	         -2.12386217	         -4.16741388	        -10.49891617	          2.76595966	          0.25701454	        -14.12022876	          1.61531032	          4.20754345	          0.01644879	          0.01000734	          0.01000530	          0.03803966	          0.01919040	          0.01275294	          0.17808545	          0.02201525	          0.01760864	          0.01211500	          0.01001045	          0.12562050	          0.29030013	          0.01227179	          0.02879444	          0.19973050	          0.05200216	          0.01000198	          0.18594667	          0.03514397	          0.10521084	          0.08215468	          0.08273000	          0.03976867	          0.01444822	          0.01000501	          0.01000148	          0.40292734	
          0.66618808	         -3.58340199	          0.71849385	         -5.10856048	          0.73666524	          0.94100940	          0.00522778	        -13.87262382	         -2.63796050	         -2.82880731	        -12.32238787	         11.20833101	         30.48390827	         30.96294399	         -1.96758936	         -4.23324226	        -11.58147188	          2.30697307	          0.21051601	        -13.65448615	          1.14512681	          4.44335533	          0.02448794	          0.01000366	          0.01001488	          0.03123910	          0.01576893	          0.01902516	          0.14625173	          0.01808515	          0.01450414	          0.01001585	          0.01000803	          0.10316287	          0.26994891	          0.01007841	          0.02366093	          0.16402400	          0.04270525	          0.05120585	          0.17709494	          0.04932157	          0.08641041	          0.10195115	          0.06793938	          0.03266110	          0.01186743	          0.01220118	          0.01218077	          0.44337185	
          0.67925059	         -3.66137299	          0.76920983	         -5.16165309	          0.75510928	          0.93939080	          0.00404377	        -14.29739143	         -2.88195125	         -3.15899123	        -13.34641051	         10.27847434	         32.28888685	         30.59820619	         -1.83175705	         -4.32666714	        -12.69711885	          1.73062126	          0.20604585	        -13.17361024	          0.67794465	          4.66515038	          0.03526400	          0.01000302	          0.01000755	          0.02565433	          0.01296429	          0.01590050	          0.12010808	          0.01485853	          0.01194067	          0.01004778	          0.01006787	          0.08471945	          0.24619181	          0.01000167	          0.02916830	          0.13469968	          0.03507048	          0.09969508	          0.22209199	          0.04053076	          0.07096994	          0.11844862	          0.05579319	          0.02682409	          0.01385692	          0.01002171	          0.01000391	          0.50458488	
          0.69231311	         -3.72243551	          0.80917053	         -5.18922815	          0.77351019	          0.93830327	          0.00278777	        -14.45023008	         -3.13080178	         -3.49546664	        -14.84043434	          9.18343241	         34.15192781	         30.33612824	         -1.71620156	         -4.46425956	        -13.97455832	          1.04098595	          0.16719731	        -12.70936692	          0.22197793	          4.86868757	          0.05920943	          0.01000431	          0.01000530	          0.02106799	          0.07615507	          0.02542914	          0.09863858	          0.01220984	          0.01006238	          0.01002170	          0.01005187	          0.06957324	          0.21550449	          0.01000187	          0.03176445	          0.11061798	          0.02880072	          0.12234428	          0.27231494	          0.04220889	          0.05829105	          0.10843166	          0.04581854	          0.02203054	          0.06805198	          0.01000534	          0.01000223	          0.55647128	
          0.70537562	         -3.76655887	          0.83659417	         -5.19247918	          0.79177525	          0.93783412	          0.00147572	        -14.25439593	         -3.38692625	         -3.84410692	        -16.92428421	          7.92429486	         36.00054077	         30.11086055	         -1.61188751	         -4.61121785	        -15.36932421	          0.59261074	          0.11578579	        -12.26932078	         -0.21967071	          5.05193431	          0.08240331	          0.01000544	          0.01000553	          0.01730158	          0.14410972	          0.03549678	          0.08100818	          0.01003038	          0.01017087	          0.01001226	          0.01000783	          0.05713485	          0.17697654	          0.01000154	          0.02610183	          0.09084168	          0.02365193	          0.14746898	          0.29887794	          0.04758735	          0.04788324	          0.10948789	          0.03762719	          0.01809394	          0.12034638	          0.01000889	          0.01000369	          0.57057641	
          0.71843813	         -3.79559673	          0.85237817	         -5.16922725	          0.80976087	          0.93808887	          0.00013311	        -13.62920394	         -3.65628823	         -4.20891762	        -19.71024065	          6.50183312	         37.67166877	         29.84182683	         -1.50377276	         -4.72275477	        -16.75357923	          0.50970617	          0.06798752	        -11.86595664	         -0.64887918	          5.20959783	          0.10075584	          0.01000738	          0.01000733	          0.01420857	          0.20111158	          0.05033225	          0.06653212	          0.01000274	          0.01010373	          0.01000549	          0.01000211	          0.04692023	          0.14533597	          0.01000276	          0.02144053	          0.07460105	          0.01942373	          0.16352287	          0.31760276	          0.05032134	          0.03934169	          0.11450106	          0.03090034	          0.01486125	          0.15161032	          0.01000870	          0.01000288	          0.54773894	
          0.73150064	         -3.81081561	          0.85390867	         -5.11645864	          0.82732744	          0.93910358	         -0.00120201	        -12.52797529	         -3.94187526	         -4.61473641	        -23.25225172	          4.97854308	         38.79799854	         29.48736826	         -1.38731001	         -4.77654949	        -18.03397573	          0.76333881	          0.03708648	        -11.51193385	         -1.06629403	          5.33593036	          0.10011350	          0.01044847	          0.01000841	          0.01166867	          0.24785132	          0.05406435	          0.05464892	          0.01000269	          0.01003249	          0.01000385	          0.01000142	          0.03853184	          0.11935217	          0.01000234	          0.01761077	          0.06126406	          0.01595160	          0.16948827	          0.33065127	          0.05449500	          0.03235876	          0.10641767	          0.02537616	          0.01220695	          0.17087764	          0.01000770	          0.01000242	          0.49464286	
          0.74456315	         -3.81285502	          0.83014765	         -5.03125618	          0.84441211	          0.94083774	         -0.00249263	        -10.94620442	         -4.24692762	         -5.07588696	        -27.55148913	          3.45885448	         38.90323803	         29.00283921	         -1.27058683	         -4.76641483	        -19.10867942	          1.27336472	          0.05081770	        -11.21293325	         -1.46323104	          5.42544377	          0.09394699	          0.02620425	          0.01015085	          0.01000095	          0.28166179	          0.04448664	          0.04494682	          0.01000177	          0.01002938	          0.01000282	          0.01000081	          0.03164320	          0.09801386	          0.01000338	          0.01446574	          0.05031161	          0.01310045	          0.16955791	          0.31092756	          0.05874614	          0.02722350	          0.09330589	          0.02083963	          0.01002971	          0.21366378	          0.01000993	          0.01000250	          0.42815005	
          0.75762566	         -3.80377498	          0.76659546	         -4.90942053	          0.86098180	          0.94325740	         -0.00370938	         -8.92585926	         -4.56703975	         -5.57218366	        -32.45831519	          1.77913325	         37.98123982	         28.31570109	         -1.16570264	         -4.69710665	        -19.82838423	          1.95345259	          0.16610575	        -10.97332682	         -1.82448695	          5.46979188	          0.08109352	          0.03936835	          0.04279525	          0.01000115	          0.31332106	          0.03653459	          0.05230932	          0.01000165	          0.01002340	          0.01000241	          0.01000056	          0.02598622	          0.08049052	          0.03341426	          0.01188716	          0.04131737	          0.01075981	          0.15210225	          0.26812128	          0.06034591	          0.02242838	          0.07663495	          0.01711424	          0.01000872	          0.24237639	          0.01001024	          0.01000222	          0.36297388	
          0.77068817	         -3.78597028	          0.64958414	         -4.74796232	          0.87697266	          0.94626866	         -0.00485094	         -6.54168918	         -4.89134679	         -6.07005794	        -37.78221802	         -0.00164816	         35.79092046	         27.41942114	         -1.08935841	         -4.57285646	        -20.14531555	          2.65231267	          0.37151072	        -10.80455906	         -2.13038055	          5.46964832	          0.09893562	          0.06838562	          0.08785492	          0.01000082	          0.25756075	          0.03000331	          0.04376302	          0.01000151	          0.01003112	          0.01000291	          0.01000054	          0.02134086	          0.06610010	          0.09561543	          0.01004514	          0.03393120	          0.01000423	          0.13371699	          0.22019763	          0.05524901	          0.01843327	          0.06294452	          0.01405504	          0.01000981	          0.24457701	          0.01000683	          0.01000161	          0.31098441	
          0.78375069	         -3.75975077	          0.48002991	         -4.54786348	          0.89236620	          0.94966627	         -0.00594719	         -3.92128946	         -5.20229122	         -6.50024325	        -43.28103588	         -1.59289219	         32.05945730	         26.37574123	         -1.04844511	         -4.39726254	        -20.14623852	          3.28264824	          0.62678117	        -10.71195433	         -2.36933285	          5.43031069	          0.12052093	          0.08544991	          0.13052842	          0.01000246	          0.21151544	          0.02463955	          0.03599364	          0.01000260	          0.01002244	          0.01001793	          0.01000069	          0.01752634	          0.05428248	          0.22812434	          0.01002913	          0.02786569	          0.01000421	          0.10982597	          0.18588444	          0.05296628	          0.01514505	          0.05478155	          0.01154317	          0.01001048	          0.23258302	          0.01000593	          0.01000182	          0.26962856	
